<svg width="1440" height="1391" viewBox="0 0 1440 1391" fill="none" xmlns="http://www.w3.org/2000/svg">
<g opacity="0.5">
<circle cx="980.505" cy="304.614" r="69.2307" transform="rotate(-155.321 980.505 304.614)" fill="white"/>
<circle cx="867.984" cy="336.914" r="69.2307" transform="rotate(-155.321 867.984 336.914)" fill="white"/>
<g filter="url(#filter0_f_498_277)">
<ellipse cx="822.514" cy="231.439" rx="186.383" ry="82.9873" transform="rotate(33.7388 822.514 231.439)" fill="url(#paint0_linear_498_277)"/>
</g>
<circle cx="678.873" cy="166.012" r="69.2307" transform="rotate(-155.321 678.873 166.012)" fill="white"/>
<circle cx="745.833" cy="245.62" r="113.609" transform="rotate(-155.321 745.833 245.62)" fill="white"/>
<circle cx="883.159" cy="218.858" r="113.609" transform="rotate(-155.321 883.159 218.858)" fill="white"/>
</g>
<circle cx="456.506" cy="261.558" r="76.8793" transform="rotate(180 456.506 261.558)" fill="white"/>
<circle cx="357.943" cy="346.322" r="76.8793" transform="rotate(180 357.943 346.322)" fill="white"/>
<g filter="url(#filter1_f_498_277)">
<ellipse cx="263.157" cy="260.975" rx="206.974" ry="92.1557" transform="rotate(9.05964 263.157 260.975)" fill="url(#paint1_linear_498_277)"/>
</g>
<circle cx="87.8793" cy="261.558" r="76.8793" transform="rotate(180 87.8793 261.558)" fill="white"/>
<circle cx="192.356" cy="310.839" r="126.161" transform="rotate(180 192.356 310.839)" fill="white"/>
<circle cx="318.517" cy="220.161" r="126.161" transform="rotate(180 318.517 220.161)" fill="white"/>
<circle cx="1281.44" cy="806.368" r="70.8276" transform="rotate(180 1281.44 806.368)" fill="white"/>
<circle cx="1190.63" cy="884.46" r="70.8276" transform="rotate(180 1190.63 884.46)" fill="white"/>
<g filter="url(#filter2_f_498_277)">
<ellipse cx="1103.31" cy="805.831" rx="190.682" ry="84.9014" transform="rotate(9.05964 1103.31 805.831)" fill="url(#paint2_linear_498_277)"/>
</g>
<circle cx="941.828" cy="806.368" r="70.8276" transform="rotate(180 941.828 806.368)" fill="white"/>
<circle cx="1038.08" cy="851.77" r="116.23" transform="rotate(180 1038.08 851.77)" fill="white"/>
<circle cx="1154.31" cy="768.23" r="116.23" transform="rotate(180 1154.31 768.23)" fill="white"/>
<circle r="70.8276" transform="matrix(1 8.74228e-08 8.74228e-08 -1 1020.83 228.368)" fill="white"/>
<circle r="70.8276" transform="matrix(1 8.74228e-08 8.74228e-08 -1 1111.63 306.46)" fill="white"/>
<g filter="url(#filter3_f_498_277)">
<ellipse rx="190.682" ry="84.9014" transform="matrix(-0.987525 0.157462 0.157462 0.987525 1198.96 227.831)" fill="url(#paint3_linear_498_277)"/>
</g>
<circle r="70.8276" transform="matrix(1 8.74228e-08 8.74228e-08 -1 1360.44 228.368)" fill="white"/>
<circle r="116.23" transform="matrix(1 8.74228e-08 8.74228e-08 -1 1264.18 273.77)" fill="white"/>
<circle r="116.23" transform="matrix(1 8.74228e-08 8.74228e-08 -1 1147.95 190.23)" fill="white"/>
<circle r="70.8276" transform="matrix(1 8.74228e-08 8.74228e-08 -1 141.828 670.368)" fill="white"/>
<circle r="70.8276" transform="matrix(1 8.74228e-08 8.74228e-08 -1 232.632 748.46)" fill="white"/>
<g filter="url(#filter4_f_498_277)">
<ellipse rx="190.682" ry="84.9014" transform="matrix(-0.987525 0.157462 0.157462 0.987525 319.957 669.831)" fill="url(#paint4_linear_498_277)"/>
</g>
<circle r="70.8276" transform="matrix(1 8.74228e-08 8.74228e-08 -1 481.437 670.368)" fill="white"/>
<circle r="116.23" transform="matrix(1 8.74228e-08 8.74228e-08 -1 385.184 715.77)" fill="white"/>
<circle r="116.23" transform="matrix(1 8.74228e-08 8.74228e-08 -1 268.954 632.23)" fill="white"/>
<circle r="70.8276" transform="matrix(1 8.74228e-08 8.74228e-08 -1 597.828 471.368)" fill="white"/>
<circle r="70.8276" transform="matrix(1 8.74228e-08 8.74228e-08 -1 688.632 549.46)" fill="white"/>
<g filter="url(#filter5_f_498_277)">
<ellipse rx="190.682" ry="84.9014" transform="matrix(-0.987525 0.157462 0.157462 0.987525 775.957 470.831)" fill="url(#paint5_linear_498_277)"/>
</g>
<circle r="70.8276" transform="matrix(1 8.74228e-08 8.74228e-08 -1 937.437 471.368)" fill="white"/>
<circle r="116.23" transform="matrix(1 8.74228e-08 8.74228e-08 -1 841.184 516.77)" fill="white"/>
<circle r="116.23" transform="matrix(1 8.74228e-08 8.74228e-08 -1 724.954 433.23)" fill="white"/>
<circle r="70.8276" transform="matrix(1 8.74228e-08 8.74228e-08 -1 50.8276 1202.37)" fill="white"/>
<circle r="70.8276" transform="matrix(1 8.74228e-08 8.74228e-08 -1 141.632 1280.46)" fill="white"/>
<g filter="url(#filter6_f_498_277)">
<ellipse rx="190.682" ry="84.9014" transform="matrix(-0.987525 0.157462 0.157462 0.987525 228.957 1201.83)" fill="url(#paint6_linear_498_277)"/>
</g>
<circle r="70.8276" transform="matrix(1 8.74228e-08 8.74228e-08 -1 390.437 1202.37)" fill="white"/>
<circle r="116.23" transform="matrix(1 8.74228e-08 8.74228e-08 -1 294.184 1247.77)" fill="white"/>
<circle r="116.23" transform="matrix(1 8.74228e-08 8.74228e-08 -1 177.954 1164.23)" fill="white"/>
<defs>
<filter id="filter0_f_498_277" x="560.772" y="7.013" width="523.485" height="448.852" filterUnits="userSpaceOnUse" color-interpolation-filters="sRGB">
<feFlood flood-opacity="0" result="BackgroundImageFix"/>
<feBlend mode="normal" in="SourceGraphic" in2="BackgroundImageFix" result="shape"/>
<feGaussianBlur stdDeviation="50" result="effect1_foregroundBlur_498_277"/>
</filter>
<filter id="filter1_f_498_277" x="-41.7589" y="64.2832" width="609.831" height="393.384" filterUnits="userSpaceOnUse" color-interpolation-filters="sRGB">
<feFlood flood-opacity="0" result="BackgroundImageFix"/>
<feBlend mode="normal" in="SourceGraphic" in2="BackgroundImageFix" result="shape"/>
<feGaussianBlur stdDeviation="50" result="effect1_foregroundBlur_498_277"/>
</filter>
<filter id="filter2_f_498_277" x="814.522" y="616.751" width="577.57" height="378.161" filterUnits="userSpaceOnUse" color-interpolation-filters="sRGB">
<feFlood flood-opacity="0" result="BackgroundImageFix"/>
<feBlend mode="normal" in="SourceGraphic" in2="BackgroundImageFix" result="shape"/>
<feGaussianBlur stdDeviation="50" result="effect1_foregroundBlur_498_277"/>
</filter>
<filter id="filter3_f_498_277" x="910.172" y="38.7505" width="577.57" height="378.161" filterUnits="userSpaceOnUse" color-interpolation-filters="sRGB">
<feFlood flood-opacity="0" result="BackgroundImageFix"/>
<feBlend mode="normal" in="SourceGraphic" in2="BackgroundImageFix" result="shape"/>
<feGaussianBlur stdDeviation="50" result="effect1_foregroundBlur_498_277"/>
</filter>
<filter id="filter4_f_498_277" x="31.1717" y="480.751" width="577.57" height="378.161" filterUnits="userSpaceOnUse" color-interpolation-filters="sRGB">
<feFlood flood-opacity="0" result="BackgroundImageFix"/>
<feBlend mode="normal" in="SourceGraphic" in2="BackgroundImageFix" result="shape"/>
<feGaussianBlur stdDeviation="50" result="effect1_foregroundBlur_498_277"/>
</filter>
<filter id="filter5_f_498_277" x="487.172" y="281.751" width="577.57" height="378.161" filterUnits="userSpaceOnUse" color-interpolation-filters="sRGB">
<feFlood flood-opacity="0" result="BackgroundImageFix"/>
<feBlend mode="normal" in="SourceGraphic" in2="BackgroundImageFix" result="shape"/>
<feGaussianBlur stdDeviation="50" result="effect1_foregroundBlur_498_277"/>
</filter>
<filter id="filter6_f_498_277" x="-59.8283" y="1012.75" width="577.57" height="378.161" filterUnits="userSpaceOnUse" color-interpolation-filters="sRGB">
<feFlood flood-opacity="0" result="BackgroundImageFix"/>
<feBlend mode="normal" in="SourceGraphic" in2="BackgroundImageFix" result="shape"/>
<feGaussianBlur stdDeviation="50" result="effect1_foregroundBlur_498_277"/>
</filter>
<linearGradient id="paint0_linear_498_277" x1="970.116" y1="262.381" x2="670.873" y2="176.221" gradientUnits="userSpaceOnUse">
<stop stop-color="#E2F5FF"/>
<stop offset="1" stop-color="#D7DBFF"/>
</linearGradient>
<linearGradient id="paint1_linear_498_277" x1="427.066" y1="295.336" x2="94.7619" y2="199.658" gradientUnits="userSpaceOnUse">
<stop stop-color="#E2F5FF"/>
<stop offset="1" stop-color="#D7DBFF"/>
</linearGradient>
<linearGradient id="paint2_linear_498_277" x1="1254.31" y1="837.487" x2="948.168" y2="749.34" gradientUnits="userSpaceOnUse">
<stop stop-color="#E2F5FF"/>
<stop offset="1" stop-color="#D7DBFF"/>
</linearGradient>
<linearGradient id="paint3_linear_498_277" x1="341.688" y1="116.557" x2="35.5427" y2="28.4105" gradientUnits="userSpaceOnUse">
<stop stop-color="#E2F5FF"/>
<stop offset="1" stop-color="#D7DBFF"/>
</linearGradient>
<linearGradient id="paint4_linear_498_277" x1="341.688" y1="116.557" x2="35.5427" y2="28.4105" gradientUnits="userSpaceOnUse">
<stop stop-color="#E2F5FF"/>
<stop offset="1" stop-color="#D7DBFF"/>
</linearGradient>
<linearGradient id="paint5_linear_498_277" x1="341.688" y1="116.557" x2="35.5427" y2="28.4105" gradientUnits="userSpaceOnUse">
<stop stop-color="#E2F5FF"/>
<stop offset="1" stop-color="#D7DBFF"/>
</linearGradient>
<linearGradient id="paint6_linear_498_277" x1="341.688" y1="116.557" x2="35.5427" y2="28.4105" gradientUnits="userSpaceOnUse">
<stop stop-color="#E2F5FF"/>
<stop offset="1" stop-color="#D7DBFF"/>
</linearGradient>
</defs>
</svg>
